<svg xmlns="http://www.w3.org/2000/svg" version="1.1" xmlns:xlink="http://www.w3.org/1999/xlink" xmlns:svgjs="http://svgjs.dev/svgjs" width="1500" height="1500" viewBox="0 0 1500 1500"><rect width="1500" height="1500" fill="#ffffff"></rect><g transform="matrix(0.3952569169960474,0,0,0.3952569169960474,452.335159882363,248.38709677419354)"><svg viewBox="0 0 147 248" data-background-color="#ffffff" preserveAspectRatio="xMidYMid meet" height="2530" width="1500" xmlns="http://www.w3.org/2000/svg" xmlns:xlink="http://www.w3.org/1999/xlink"><g id="tight-bounds" transform="matrix(1,0,0,1,0.3030204587669232,0.4000000000000057)"><svg viewBox="0 0 146.39395908246613 247.2" height="247.2" width="146.39395908246613"><g><svg viewBox="0 0 395.52 667.872804402558" height="247.2" width="146.39395908246613"><g transform="matrix(1,0,0,1,0,406.63163286637734)"><svg viewBox="0 0 395.52 261.2411715361807" height="261.2411715361807" width="395.52"><g id="textblocktransform"><svg viewBox="0 0 395.52 261.2411715361807" height="261.2411715361807" width="395.52" id="textblock"><g><svg viewBox="0 0 395.52 193.14260578532154" height="193.14260578532154" width="395.52"><g transform="matrix(1,0,0,1,0,0)"><svg width="395.52" viewBox="0.25 -40.3 93.44 45.634166699987" height="193.14260578532154" data-palette-color="#41c9be"><path d="M8.68 0L5.35 0 5.35-35.48 8.68-35.48 8.68 0ZM13.75-37L0.25-37 0.25-40 13.75-40 13.75-37ZM20.07 0L16.75 0 16.75-40 20.07-40 20.07 0ZM29.92 0L26.62 0 26.62-24.63Q26.62-26.3 26-27.03 25.37-27.75 24.02-27.75L24.02-27.75Q23-27.75 22.25-27.38L22.25-27.38 22.25-29.33Q22.8-29.83 23.48-30.09 24.17-30.35 25.2-30.35L25.2-30.35Q27.55-30.35 28.73-28.98 29.92-27.6 29.92-24.4L29.92-24.4 29.92 0ZM34.87-5.75L34.87-5.75Q34.82-7.78 34.8-10.13 34.77-12.48 34.77-14.94 34.77-17.4 34.8-19.78 34.82-22.15 34.87-24.2L34.87-24.2Q35.02-27.2 36.27-28.64 37.52-30.08 40.2-30.28L40.2-30.28 40.2-27.6Q39.17-27.38 38.7-26.66 38.22-25.95 38.2-24.63L38.2-24.63Q38.15-21.95 38.12-19.61 38.1-17.28 38.1-15.05 38.1-12.83 38.12-10.49 38.15-8.15 38.2-5.45L38.2-5.45Q38.22-3.98 38.68-3.29 39.15-2.6 40.2-2.4L40.2-2.4 40.2 0.3Q37.45 0.08 36.22-1.35 35-2.78 34.87-5.75ZM42.4 0.3L42.4 0.3 42.4-2.4Q43.37-2.6 43.82-3.3 44.27-4 44.35-5.45L44.35-5.45Q44.4-6.4 44.38-7.6 44.37-8.8 44.3-10.3L44.3-10.3 47.55-10.3Q47.62-9.18 47.63-7.95 47.65-6.73 47.6-5.75L47.6-5.75Q47.45-2.78 46.27-1.34 45.1 0.1 42.4 0.3ZM47.55-14.3L39.95-14.3 39.95-16.78 44.35-16.78Q44.4-18.53 44.4-20.08 44.4-21.63 44.38-22.79 44.37-23.95 44.35-24.63L44.35-24.63Q44.25-25.95 43.8-26.66 43.35-27.38 42.4-27.6L42.4-27.6 42.4-30.3Q45.05-30.08 46.25-28.68 47.45-27.28 47.6-24.3L47.6-24.3Q47.62-23.55 47.65-22.05 47.67-20.55 47.66-18.57 47.65-16.6 47.55-14.3L47.55-14.3ZM62.39-6.15L62.39-6.15Q62.32-9.73 62.29-13.16 62.27-16.6 62.27-20 62.27-23.4 62.29-26.83 62.32-30.25 62.39-33.85L62.39-33.85Q62.47-37.02 63.74-38.55 65.02-40.08 67.89-40.3L67.89-40.3 67.89-37.43Q66.77-37.25 66.25-36.51 65.74-35.77 65.69-34.35L65.69-34.35Q65.59-30.8 65.55-27.24 65.52-23.68 65.52-20.11 65.52-16.55 65.57-12.94 65.62-9.33 65.69-5.65L65.69-5.65Q65.74-4.23 66.25-3.5 66.77-2.78 67.89-2.58L67.89-2.58 67.89 0.3Q65.02 0.08 63.74-1.45 62.47-2.98 62.39-6.15ZM67.54 1.15L67.54 1.15 70.79 1.15Q71.09 1.98 71.73 2.34 72.37 2.7 73.47 2.6L73.47 2.6 73.47 5.3Q70.79 5.5 69.37 4.53 67.94 3.55 67.54 1.15ZM70.07 0.3L70.07 0.3 70.07-2.58Q71.19-2.78 71.7-3.5 72.22-4.23 72.24-5.65L72.24-5.65Q72.34-9.33 72.38-12.94 72.42-16.55 72.42-20.11 72.42-23.68 72.37-27.24 72.32-30.8 72.24-34.35L72.24-34.35Q72.22-35.77 71.7-36.51 71.19-37.25 70.07-37.43L70.07-37.43 70.07-40.3Q72.97-40.1 74.24-38.58 75.52-37.05 75.57-33.85L75.57-33.85Q75.64-30.25 75.67-26.81 75.69-23.38 75.69-19.99 75.69-16.6 75.67-13.16 75.64-9.73 75.57-6.15L75.57-6.15Q75.52-2.95 74.24-1.43 72.97 0.1 70.07 0.3ZM82.19 0L78.79 0 83.06-40 89.51-40 89.84-37 85.56-37 84.49-22.93 83.64-14.6 87.61-14.6 86.81-11.6 83.39-11.6 82.19 0ZM93.69 0L90.31 0 88.06-22.98 87.14-35.48 89.94-35.48 93.69 0Z" opacity="1" transform="matrix(1,0,0,1,0,0)" fill="#41c9be" class="wordmark-text-0" data-fill-palette-color="primary" id="text-0"></path></svg></g></svg></g><g transform="matrix(1,0,0,1,39.55199999999999,238.73893958869712)"><svg viewBox="0 0 316.416 22.50223194748359" height="22.50223194748359" width="316.416"><g transform="matrix(1,0,0,1,0,0)"><svg width="316.416" viewBox="1.95 -31.98 580.1099999999999 41.26" height="22.50223194748359" data-palette-color="#022825"><path d="M1.95 0L15.92 0 15.92-1.27 10.06-1.27 10.06-14.4 20.12-14.4 20.12-15.82 10.06-15.82 10.06-28.03 17.87-28.03Q21.39-28.03 22.9-23.29L22.9-23.29Q23-23 23.05-22.8L23.05-22.8 23.73-20.51 24.71-20.51 24.46-29.3 1.95-29.3 1.95-28.03 5.86-28.03 5.86-1.27 1.95-1.27 1.95 0ZM37.6-1.22L37.6-1.22 34.08-1.22 34.08-10.94Q34.08-15.38 36.81-18.07L36.81-18.07Q37.89-19.09 38.62-19.14L38.62-19.14Q39.45-19.14 40.13-17.92L40.13-17.92Q40.92-16.55 41.6-16.36L41.6-16.36Q41.89-16.26 42.19-16.26L42.19-16.26Q43.65-16.26 44.04-17.68L44.04-17.68Q44.14-17.97 44.14-18.26L44.14-18.26Q44.14-20.46 41.89-20.95L41.89-20.95Q41.4-21.04 40.96-21.04L40.96-21.04Q38.03-21.04 35.74-18.55L35.74-18.55Q34.67-17.38 34.03-15.92L34.03-15.92 33.84-20.75 26.76-20.75 26.76-19.53 30.42-19.53 30.42-4.15Q30.42-1.9 29.15-1.46L29.15-1.46Q28.42-1.22 26.76-1.22L26.76-1.22 26.76 0 38.82 0Q38.82-1.07 38.08-1.17L38.08-1.17Q37.89-1.22 37.6-1.22ZM56.54-20.02L56.54-20.02Q59.96-20.02 61.08-17.14L61.08-17.14Q61.47-16.21 61.47-15.14L61.47-15.14Q61.47-12.7 59.13-12.16L59.13-12.16Q57.91-11.91 55.66-11.96L55.66-11.96 50.48-12.11Q50.73-17.72 54.15-19.43L54.15-19.43Q55.27-20.02 56.54-20.02ZM65.03-4.69L65.03-4.69 63.81-5.13Q62.1-1.42 58.3-0.93L58.3-0.93Q57.81-0.88 57.37-0.88L57.37-0.88Q52.24-0.88 50.92-6.98L50.92-6.98Q50.53-8.69 50.48-10.74L50.48-10.74 56.34-10.64Q62.3-10.55 64.01-11.77L64.01-11.77Q65.33-12.74 65.33-14.55L65.33-14.55Q65.33-17.87 61.96-19.82L61.96-19.82Q59.57-21.24 56.44-21.24L56.44-21.24Q50.34-21.24 47.7-16.16L47.7-16.16Q46.33-13.53 46.33-10.21L46.33-10.21Q46.33-4.15 50.68-1.22L50.68-1.22Q53.27 0.49 56.59 0.49L56.59 0.49Q61.86 0.49 64.35-3.32L64.35-3.32Q64.74-4 65.03-4.69ZM79.19-20.02L79.19-20.02Q82.61-20.02 83.73-17.14L83.73-17.14Q84.12-16.21 84.12-15.14L84.12-15.14Q84.12-12.7 81.78-12.16L81.78-12.16Q80.56-11.91 78.31-11.96L78.31-11.96 73.14-12.11Q73.38-17.72 76.8-19.43L76.8-19.43Q77.92-20.02 79.19-20.02ZM87.69-4.69L87.69-4.69 86.47-5.13Q84.76-1.42 80.95-0.93L80.95-0.93Q80.46-0.88 80.02-0.88L80.02-0.88Q74.89-0.88 73.58-6.98L73.58-6.98Q73.19-8.69 73.14-10.74L73.14-10.74 79-10.64Q84.95-10.55 86.66-11.77L86.66-11.77Q87.98-12.74 87.98-14.55L87.98-14.55Q87.98-17.87 84.61-19.82L84.61-19.82Q82.22-21.24 79.09-21.24L79.09-21.24Q72.99-21.24 70.35-16.16L70.35-16.16Q68.99-13.53 68.99-10.21L68.99-10.21Q68.99-4.15 73.33-1.22L73.33-1.22Q75.92 0.49 79.24 0.49L79.24 0.49Q84.51 0.49 87-3.32L87-3.32Q87.39-4 87.69-4.69ZM110.24-1.22L110.24-1.22 108.04-1.22 108.04-8.45 110.73-10.94 117.61 0 124.11 0Q124.11-1.07 123.38-1.17L123.38-1.17Q123.18-1.22 122.89-1.22L122.89-1.22 121.13-1.22 113.27-13.33 117.86-17.63Q119.57-19.24 120.45-19.43L120.45-19.43Q120.84-19.53 121.33-19.53L121.33-19.53Q122.4-19.53 122.5-20.26L122.5-20.26Q122.55-20.51 122.55-20.75L122.55-20.75 114.25-20.75 114.25-19.53 117.91-19.53 108.04-10.4 108.04-31.74 100.72-31.74 100.72-30.52 104.38-30.52 104.38-4.15Q104.38-1.9 103.11-1.46L103.11-1.46Q102.38-1.22 100.72-1.22L100.72-1.22 100.72 0 111.46 0Q111.46-1.07 110.73-1.17L110.73-1.17Q110.53-1.22 110.24-1.22ZM134.6-1.22L134.6-1.22 132.41-1.22 132.41-11.77Q132.55-16.31 135.63-18.31L135.63-18.31Q136.95-19.14 138.32-19.14L138.32-19.14Q141.29-19.14 142.37-16.36L142.37-16.36Q142.81-15.23 142.81-13.82L142.81-13.82 142.81-4.15Q142.81-1.9 141.54-1.46L141.54-1.46Q140.81-1.22 139.15-1.22L139.15-1.22 139.15 0 150.13 0Q150.13-1.07 149.4-1.17L149.4-1.17Q149.2-1.22 148.91-1.22L148.91-1.22 146.47-1.22 146.47-13.33Q146.47-18.21 143.1-20.31L143.1-20.31Q141.54-21.24 139.73-21.24L139.73-21.24Q136.12-21.24 133.77-18.36L133.77-18.36Q132.9-17.24 132.36-15.87L132.36-15.87 132.16-20.75 125.08-20.75 125.08-19.53 128.74-19.53 128.74-4.15Q128.74-1.9 127.48-1.46L127.48-1.46Q126.74-1.22 125.08-1.22L125.08-1.22 125.08 0 135.82 0Q135.82-1.07 135.09-1.17L135.09-1.17Q134.9-1.22 134.6-1.22ZM157.45-10.4L157.45-10.4Q157.45-17.97 161.6-19.63L161.6-19.63Q162.68-20.02 163.85-20.02L163.85-20.02Q169.27-20.02 170.15-13.18L170.15-13.18Q170.3-12.01 170.3-10.6L170.3-10.6Q170.3-2.39 165.8-0.98L165.8-0.98Q164.92-0.73 164-0.73L164-0.73Q159.06-0.73 157.8-6.59L157.8-6.59Q157.45-8.3 157.45-10.4ZM164-21.24L164-21.24Q159.31-21.24 156.18-18.02L156.18-18.02Q153.3-15.04 153.3-10.6L153.3-10.6Q153.3-4.44 157.8-1.37L157.8-1.37Q160.53 0.49 163.85 0.49L163.85 0.49Q168.54 0.49 171.61-2.83L171.61-2.83Q174.45-5.86 174.45-10.4L174.45-10.4Q174.45-16.55 169.9-19.53L169.9-19.53Q167.22-21.24 164-21.24ZM182.69-19.53L186.36-19.53 186.36-20.75 176.69-20.75 176.69-19.53 178.89-19.53 184.99-3.17Q186.02-0.39 187.09 0.05L187.09 0.05Q187.63 0.24 188.41 0.24L188.41 0.24 189.38 0.24 193.63-12.55 196.9-3.17Q197.83-0.44 198.81 0.05L198.81 0.05Q199.3 0.24 200.13 0.24L200.13 0.24 200.91 0.24 206.82-17.77Q207.3-19.29 207.99-19.48L207.99-19.48Q208.23-19.53 208.52-19.53L208.52-19.53Q209.6-19.53 209.75-20.21L209.75-20.21Q209.79-20.46 209.79-20.75L209.79-20.75 202.57-20.75 202.57-19.53 205.99-19.53 200.57-2.69 194.85-19.53 198.27-19.53 198.27-20.75 190.75-20.75 192.95-14.55 188.9-2.54 182.69-19.53ZM221.36-1.22L221.36-1.22 218.73-1.22 218.73-31.74 211.4-31.74 211.4-30.52 215.07-30.52 215.07-4.15Q215.07-1.9 213.8-1.46L213.8-1.46Q213.06-1.22 211.4-1.22L211.4-1.22 211.4 0 222.58 0Q222.58-1.07 221.85-1.17L221.85-1.17Q221.66-1.22 221.36-1.22ZM236.06-20.02L236.06-20.02Q239.48-20.02 240.6-17.14L240.6-17.14Q240.99-16.21 240.99-15.14L240.99-15.14Q240.99-12.7 238.65-12.16L238.65-12.16Q237.43-11.91 235.18-11.96L235.18-11.96 230-12.11Q230.25-17.72 233.67-19.43L233.67-19.43Q234.79-20.02 236.06-20.02ZM244.56-4.69L244.56-4.69 243.33-5.13Q241.63-1.42 237.82-0.93L237.82-0.93Q237.33-0.88 236.89-0.88L236.89-0.88Q231.76-0.88 230.44-6.98L230.44-6.98Q230.05-8.69 230-10.74L230-10.74 235.86-10.64Q241.82-10.55 243.53-11.77L243.53-11.77Q244.85-12.74 244.85-14.55L244.85-14.55Q244.85-17.87 241.48-19.82L241.48-19.82Q239.09-21.24 235.96-21.24L235.96-21.24Q229.86-21.24 227.22-16.16L227.22-16.16Q225.85-13.53 225.85-10.21L225.85-10.21Q225.85-4.15 230.2-1.22L230.2-1.22Q232.79 0.49 236.11 0.49L236.11 0.49Q241.38 0.49 243.87-3.32L243.87-3.32Q244.26-4 244.56-4.69ZM264.77-5.18L265.16 0 272.14 0Q272.14-1.07 271.41-1.17L271.41-1.17Q271.21-1.22 270.92-1.22L270.92-1.22 268.48-1.22 268.38-31.74 260.08-31.74 260.08-30.52 264.72-30.52 264.72-18.6Q262.33-21.24 258.27-21.24L258.27-21.24Q252.9-21.24 250.17-16.46L250.17-16.46Q248.51-13.53 248.51-9.86L248.51-9.86Q248.51-3.81 252.32-1.03L252.32-1.03Q254.46 0.49 257.05 0.49L257.05 0.49Q262.37 0.39 264.77-5.18L264.77-5.18ZM252.66-10.45L252.66-10.45Q252.66-17.33 256.37-19.38L256.37-19.38Q257.54-20.02 258.96-20.02L258.96-20.02Q262.52-20.02 264.04-16.21L264.04-16.21Q264.87-14.16 264.87-11.38L264.87-11.38Q264.87-5.52 261.94-2.88L261.94-2.88Q260.37-1.46 258.37-1.46L258.37-1.46Q254.37-1.46 253.15-6.35L253.15-6.35Q252.66-8.15 252.66-10.45ZM279.66-13.53L279.66-13.53Q279.76-19.97 284.54-20.02L284.54-20.02Q289.33-19.92 289.37-13.53L289.37-13.53Q289.28-6.88 284.54-6.84L284.54-6.84Q279.71-6.93 279.66-13.53ZM284.59-21.24L284.59-21.24Q280.19-21.24 277.61-18.41L277.61-18.41Q275.75-16.31 275.75-13.48L275.75-13.48Q275.75-9.77 279.36-7.32L279.36-7.32Q279.71-7.08 280.05-6.88L280.05-6.88Q276.92-6.88 276.14-4.2L276.14-4.2Q276-3.56 276-2.93L276-2.93Q276.04-0.34 278.1 0.93L278.1 0.93Q276.48 2.64 276.48 4.39L276.48 4.39Q276.48 7.08 279.66 8.4L279.66 8.4Q281.66 9.28 284.59 9.28L284.59 9.28Q292.01 9.28 294.4 5.66L294.4 5.66Q295.18 4.44 295.18 3.08L295.18 3.08Q295.18-1.12 290.35-1.76L290.35-1.76Q289.72-1.86 289.03-1.86L289.03-1.86 280.15-2.05Q277.9-2.2 277.85-4L277.85-4Q277.85-5.27 279.46-5.62L279.46-5.62Q279.8-5.66 280.19-5.66L280.19-5.66 284.49-5.62Q288.84-5.62 291.43-8.54L291.43-8.54Q293.28-10.64 293.28-13.53L293.28-13.53Q293.23-17.19 290.45-19.38L290.45-19.38Q290.89-20.95 292.11-21.24L292.11-21.24Q292.3-21.29 292.5-21.29L292.5-21.29Q293.18-21.29 293.96-20.56L293.96-20.56Q294.5-20.07 294.94-20.07L294.94-20.07Q296.16-20.36 296.36-21.63L296.36-21.63Q296.36-23.14 294.94-23.68L294.94-23.68Q294.4-23.88 293.87-23.88L293.87-23.88Q291.57-23.88 290.16-21.83L290.16-21.83Q289.62-21.04 289.33-20.12L289.33-20.12Q287.13-21.24 284.59-21.24ZM284.59 8.01L284.59 8.01Q279.76 8.01 278.49 5.47L278.49 5.47Q278.14 4.79 278.14 4.1L278.14 4.1Q278.19 2.78 279.32 1.46L279.32 1.46Q280.29 1.66 280.93 1.66L280.93 1.66 288.45 1.76Q292.11 1.81 292.69 3.42L292.69 3.42Q292.84 3.81 292.84 4.39L292.84 4.39Q292.84 6.54 288.84 7.52L288.84 7.52Q286.88 8.01 284.59 8.01ZM308.95-20.02L308.95-20.02Q312.37-20.02 313.49-17.14L313.49-17.14Q313.88-16.21 313.88-15.14L313.88-15.14Q313.88-12.7 311.54-12.16L311.54-12.16Q310.32-11.91 308.07-11.96L308.07-11.96 302.9-12.11Q303.14-17.72 306.56-19.43L306.56-19.43Q307.68-20.02 308.95-20.02ZM317.45-4.69L317.45-4.69 316.23-5.13Q314.52-1.42 310.71-0.93L310.71-0.93Q310.22-0.88 309.78-0.88L309.78-0.88Q304.66-0.88 303.34-6.98L303.34-6.98Q302.95-8.69 302.9-10.74L302.9-10.74 308.76-10.64Q314.71-10.55 316.42-11.77L316.42-11.77Q317.74-12.74 317.74-14.55L317.74-14.55Q317.74-17.87 314.37-19.82L314.37-19.82Q311.98-21.24 308.85-21.24L308.85-21.24Q302.75-21.24 300.11-16.16L300.11-16.16Q298.75-13.53 298.75-10.21L298.75-10.21Q298.75-4.15 303.09-1.22L303.09-1.22Q305.68 0.49 309 0.49L309 0.49Q314.27 0.49 316.76-3.32L316.76-3.32Q317.16-4 317.45-4.69ZM341.22-1.22L341.22-1.22 337.8-1.22 337.8-19.53 343.42-19.53 343.42-20.75 337.8-20.75 337.8-21.04Q337.8-29.39 340.29-30.52L340.29-30.52Q340.83-30.76 341.47-30.76L341.47-30.76Q342.98-30.76 344.01-28.96L344.01-28.96Q344.88-27.39 345.28-27.1L345.28-27.1Q345.67-26.81 346.15-26.81L346.15-26.81Q347.77-26.81 348.06-28.17L348.06-28.17Q348.11-28.42 348.11-28.61L348.11-28.61Q348.11-30.42 345.67-31.45L345.67-31.45Q344.25-31.98 342.49-31.98L342.49-31.98Q337.9-31.98 335.66-28.17L335.66-28.17Q334.14-25.54 334.14-21.53L334.14-21.53 334.14-20.75 330.72-20.75 330.72-19.53 334.14-19.53 334.14-4.15Q334.14-1.9 332.87-1.46L332.87-1.46Q332.14-1.22 330.48-1.22L330.48-1.22 330.48 0 342.44 0Q342.44-1.07 341.71-1.17L341.71-1.17Q341.52-1.22 341.22-1.22ZM349.91-10.4L349.91-10.4Q349.91-17.97 354.06-19.63L354.06-19.63Q355.14-20.02 356.31-20.02L356.31-20.02Q361.73-20.02 362.61-13.18L362.61-13.18Q362.75-12.01 362.75-10.6L362.75-10.6Q362.75-2.39 358.26-0.98L358.26-0.98Q357.38-0.73 356.45-0.73L356.45-0.73Q351.52-0.73 350.25-6.59L350.25-6.59Q349.91-8.3 349.91-10.4ZM356.45-21.24L356.45-21.24Q351.77-21.24 348.64-18.02L348.64-18.02Q345.76-15.04 345.76-10.6L345.76-10.6Q345.76-4.44 350.25-1.37L350.25-1.37Q352.99 0.49 356.31 0.49L356.31 0.49Q361 0.49 364.07-2.83L364.07-2.83Q366.9-5.86 366.9-10.4L366.9-10.4Q366.9-16.55 362.36-19.53L362.36-19.53Q359.68-21.24 356.45-21.24ZM381.26-1.22L381.26-1.22 377.74-1.22 377.74-10.94Q377.74-15.38 380.48-18.07L380.48-18.07Q381.55-19.09 382.28-19.14L382.28-19.14Q383.11-19.14 383.8-17.92L383.8-17.92Q384.58-16.55 385.26-16.36L385.26-16.36Q385.55-16.26 385.85-16.26L385.85-16.26Q387.31-16.26 387.7-17.68L387.7-17.68Q387.8-17.97 387.8-18.26L387.8-18.26Q387.8-20.46 385.55-20.95L385.55-20.95Q385.06-21.04 384.63-21.04L384.63-21.04Q381.7-21.04 379.4-18.55L379.4-18.55Q378.33-17.38 377.69-15.92L377.69-15.92 377.5-20.75 370.42-20.75 370.42-19.53 374.08-19.53 374.08-4.15Q374.08-1.9 372.81-1.46L372.81-1.46Q372.08-1.22 370.42-1.22L370.42-1.22 370.42 0 382.48 0Q382.48-1.07 381.74-1.17L381.74-1.17Q381.55-1.22 381.26-1.22ZM409.72-20.02L409.72-20.02Q413.14-20.02 414.26-17.14L414.26-17.14Q414.65-16.21 414.65-15.14L414.65-15.14Q414.65-12.7 412.31-12.16L412.31-12.16Q411.09-11.91 408.84-11.96L408.84-11.96 403.66-12.11Q403.91-17.72 407.33-19.43L407.33-19.43Q408.45-20.02 409.72-20.02ZM418.21-4.69L418.21-4.69 416.99-5.13Q415.28-1.42 411.48-0.93L411.48-0.93Q410.99-0.88 410.55-0.88L410.55-0.88Q405.42-0.88 404.1-6.98L404.1-6.98Q403.71-8.69 403.66-10.74L403.66-10.74 409.52-10.64Q415.48-10.55 417.19-11.77L417.19-11.77Q418.51-12.74 418.51-14.55L418.51-14.55Q418.51-17.87 415.14-19.82L415.14-19.82Q412.75-21.24 409.62-21.24L409.62-21.24Q403.52-21.24 400.88-16.16L400.88-16.16Q399.51-13.53 399.51-10.21L399.51-10.21Q399.51-4.15 403.86-1.22L403.86-1.22Q406.45 0.49 409.77 0.49L409.77 0.49Q415.04 0.49 417.53-3.32L417.53-3.32Q417.92-4 418.21-4.69ZM426.41-19.53L429.83-19.53 429.83-20.75 420.36-20.75 420.36-19.53 422.56-19.53 428.51-3.17Q429.49-0.44 430.66 0L430.66 0Q431.25 0.24 432.13 0.24L432.13 0.24 432.76 0.24 439.65-17.82Q440.23-19.34 441.06-19.48L441.06-19.48Q441.31-19.53 441.5-19.53L441.5-19.53Q442.58-19.53 442.67-20.26L442.67-20.26Q442.72-20.51 442.72-20.75L442.72-20.75 435.2-20.75 435.2-19.53 438.87-19.53 432.66-2.88 426.41-19.53ZM455.03-20.02L455.03-20.02Q458.44-20.02 459.57-17.14L459.57-17.14Q459.96-16.21 459.96-15.14L459.96-15.14Q459.96-12.7 457.61-12.16L457.61-12.16Q456.39-11.91 454.15-11.96L454.15-11.96 448.97-12.11Q449.22-17.72 452.63-19.43L452.63-19.43Q453.76-20.02 455.03-20.02ZM463.52-4.69L463.52-4.69 462.3-5.13Q460.59-1.42 456.78-0.93L456.78-0.93Q456.3-0.88 455.86-0.88L455.86-0.88Q450.73-0.88 449.41-6.98L449.41-6.98Q449.02-8.69 448.97-10.74L448.97-10.74 454.83-10.64Q460.79-10.55 462.5-11.77L462.5-11.77Q463.81-12.74 463.81-14.55L463.81-14.55Q463.81-17.87 460.45-19.82L460.45-19.82Q458.05-21.24 454.93-21.24L454.93-21.24Q448.82-21.24 446.19-16.16L446.19-16.16Q444.82-13.53 444.82-10.21L444.82-10.21Q444.82-4.15 449.17-1.22L449.17-1.22Q451.75 0.49 455.07 0.49L455.07 0.49Q460.35 0.49 462.84-3.32L462.84-3.32Q463.23-4 463.52-4.69ZM477.92-1.22L477.92-1.22 474.41-1.22 474.41-10.94Q474.41-15.38 477.14-18.07L477.14-18.07Q478.22-19.09 478.95-19.14L478.95-19.14Q479.78-19.14 480.46-17.92L480.46-17.92Q481.24-16.55 481.93-16.36L481.93-16.36Q482.22-16.26 482.51-16.26L482.51-16.26Q483.98-16.26 484.37-17.68L484.37-17.68Q484.47-17.97 484.47-18.26L484.47-18.26Q484.47-20.46 482.22-20.95L482.22-20.95Q481.73-21.04 481.29-21.04L481.29-21.04Q478.36-21.04 476.07-18.55L476.07-18.55Q474.99-17.38 474.36-15.92L474.36-15.92 474.16-20.75 467.08-20.75 467.08-19.53 470.75-19.53 470.75-4.15Q470.75-1.9 469.48-1.46L469.48-1.46Q468.74-1.22 467.08-1.22L467.08-1.22 467.08 0 479.14 0Q479.14-1.07 478.41-1.17L478.41-1.17Q478.22-1.22 477.92-1.22ZM489.74 7.76L489.74 7.76Q488.96 7.76 488.57 6.59L488.57 6.59Q488.03 5.13 487.54 4.79L487.54 4.79Q487.1 4.49 486.51 4.49L486.51 4.49Q484.95 4.49 484.71 5.86L484.71 5.86Q484.66 6.05 484.66 6.2L484.66 6.2Q484.66 8.06 486.81 8.89L486.81 8.89Q487.78 9.28 488.86 9.28L488.86 9.28Q492.72 9.28 495.55 4.54L495.55 4.54Q496.72 2.64 497.79 0L497.79 0 505.02-17.82Q505.51-19.19 506.09-19.38L506.09-19.38Q506.44-19.48 506.88-19.48L506.88-19.48Q507.85-19.48 508-20.02L508-20.02Q508.1-20.31 508.1-20.75L508.1-20.75 500.67-20.75 500.67-19.48 504.24-19.48 497.99-3.86 491.3-19.48 494.57-19.48 494.57-20.75 485.05-20.75 485.05-19.48 487.44-19.48 496.23 0Q493.5 6.45 491.1 7.47L491.1 7.47Q490.42 7.76 489.74 7.76ZM514.44-10.4L514.44-10.4Q514.44-17.97 518.59-19.63L518.59-19.63Q519.67-20.02 520.84-20.02L520.84-20.02Q526.26-20.02 527.14-13.18L527.14-13.18Q527.28-12.01 527.28-10.6L527.28-10.6Q527.28-2.39 522.79-0.98L522.79-0.98Q521.91-0.73 520.98-0.73L520.98-0.73Q516.05-0.73 514.78-6.59L514.78-6.59Q514.44-8.3 514.44-10.4ZM520.98-21.24L520.98-21.24Q516.3-21.24 513.17-18.02L513.17-18.02Q510.29-15.04 510.29-10.6L510.29-10.6Q510.29-4.44 514.78-1.37L514.78-1.37Q517.52 0.49 520.84 0.49L520.84 0.49Q525.53 0.49 528.6-2.83L528.6-2.83Q531.43-5.86 531.43-10.4L531.43-10.4Q531.43-16.55 526.89-19.53L526.89-19.53Q524.21-21.24 520.98-21.24ZM544.37-1.22L544.37-1.22 542.17-1.22 542.17-11.77Q542.32-16.31 545.4-18.31L545.4-18.31Q546.71-19.14 548.08-19.14L548.08-19.14Q551.06-19.14 552.13-16.36L552.13-16.36Q552.57-15.23 552.57-13.82L552.57-13.82 552.57-4.15Q552.57-1.9 551.3-1.46L551.3-1.46Q550.57-1.22 548.91-1.22L548.91-1.22 548.91 0 559.9 0Q559.9-1.07 559.17-1.17L559.17-1.17Q558.97-1.22 558.68-1.22L558.68-1.22 556.24-1.22 556.24-13.33Q556.24-18.21 552.87-20.31L552.87-20.31Q551.3-21.24 549.5-21.24L549.5-21.24Q545.88-21.24 543.54-18.36L543.54-18.36Q542.66-17.24 542.13-15.87L542.13-15.87 541.93-20.75 534.85-20.75 534.85-19.53 538.51-19.53 538.51-4.15Q538.51-1.9 537.24-1.46L537.24-1.46Q536.51-1.22 534.85-1.22L534.85-1.22 534.85 0 545.59 0Q545.59-1.07 544.86-1.17L544.86-1.17Q544.66-1.22 544.37-1.22ZM573.27-20.02L573.27-20.02Q576.69-20.02 577.82-17.14L577.82-17.14Q578.21-16.21 578.21-15.14L578.21-15.14Q578.21-12.7 575.86-12.16L575.86-12.16Q574.64-11.91 572.4-11.96L572.4-11.96 567.22-12.11Q567.46-17.72 570.88-19.43L570.88-19.43Q572.01-20.02 573.27-20.02ZM581.77-4.69L581.77-4.69 580.55-5.13Q578.84-1.42 575.03-0.93L575.03-0.93Q574.54-0.88 574.1-0.88L574.1-0.88Q568.98-0.88 567.66-6.98L567.66-6.98Q567.27-8.69 567.22-10.74L567.22-10.74 573.08-10.64Q579.04-10.55 580.75-11.77L580.75-11.77Q582.06-12.74 582.06-14.55L582.06-14.55Q582.06-17.87 578.69-19.82L578.69-19.82Q576.3-21.24 573.18-21.24L573.18-21.24Q567.07-21.24 564.44-16.16L564.44-16.16Q563.07-13.53 563.07-10.21L563.07-10.21Q563.07-4.15 567.42-1.22L567.42-1.22Q570 0.49 573.32 0.49L573.32 0.49Q578.6 0.49 581.09-3.32L581.09-3.32Q581.48-4 581.77-4.69Z" opacity="1" transform="matrix(1,0,0,1,0,0)" fill="#022825" class="slogan-text-1" data-fill-palette-color="secondary" id="text-1"></path></svg></g></svg></g></svg></g></svg></g><g transform="matrix(1,0,0,1,82.801327569677,0)"><svg viewBox="0 0 229.91734486064598 361.0352990630018" height="361.0352990630018" width="229.91734486064598"><g><svg xmlns="http://www.w3.org/2000/svg" viewBox="21.343666480363044 5 57.31348415128579 89.99839008859342" x="0" y="0" height="361.0352990630018" width="229.91734486064598" class="icon-icon-0" data-fill-palette-color="accent" id="icon-0"><path d="M35.11 5L45.382 19.83V23.924C39.383 24.214 33.846 25.944 29.592 29.274 24.59 33.188 21.392 39.301 21.344 47.645 21.294 56.231 26.877 61.316 30.58 67.154 34.29 73.004 34.947 78.698 32.654 87.75 32.587 88.014 32.7 88.33 32.964 88.396 33.23 88.463 33.48 88.238 33.544 87.973 35.773 78.769 35.205 72.684 31.369 66.637 27.572 60.65 22.234 55.823 22.281 47.647 22.328 39.535 25.376 33.758 30.161 30.013 34.216 26.838 39.555 25.154 45.382 24.864V29.61C38.616 30.095 34.119 33.341 31.256 36.678 29.156 39.125 27.857 42.795 27.729 46.588 27.599 50.38 28.673 54.338 31.533 57.168 33.796 59.407 36.583 59.328 38.8 58.388 41.014 57.45 42.849 55.766 43.934 54.728 46.61 52.166 49.739 50.757 54.988 51.037 57.118 51.151 59.364 51.022 61.378 50.193 63.395 49.365 65.152 47.78 66.105 45.223 66.938 42.983 66.394 39.94 64.518 37.115 62.642 34.291 59.368 31.697 54.58 30.512A32 32 0 0 0 48.611 29.594V24.832C55.631 25.092 61.847 27.422 66.264 31.372 70.692 35.33 73.332 40.905 73.154 47.694 73.124 48.851 72.647 50.008 72.29 51.201S71.684 53.656 72.29 54.906C73.341 57.08 74.911 59.294 76.092 61.203 76.682 62.158 77.174 63.027 77.452 63.771 77.727 64.516 77.782 65.092 77.622 65.477 77.388 66.04 77.137 66.242 76.809 66.34 76.479 66.437 76.015 66.405 75.523 66.316 75.032 66.228 74.522 66.091 73.993 66.068S72.852 66.173 72.462 66.662C72.153 67.05 72.072 67.516 72.092 67.945 72.112 68.375 72.22 68.772 72.338 69.156S72.578 69.92 72.635 70.216 72.673 70.706 72.609 70.835C72.558 70.939 72.498 70.974 72.314 71.008 72.131 71.04 71.86 71.034 71.572 71.008 71.285 70.98 70.99 70.944 70.684 70.982 70.53 71.002 70.35 71.035 70.189 71.18 70.028 71.324 69.962 71.572 69.97 71.773 69.984 72.236 70.292 72.545 70.586 72.762S71.2 73.144 71.475 73.305C71.748 73.465 71.955 73.617 71.992 73.674 72.011 73.702 72.016 73.682 72.018 73.674 72.018 73.666 71.994 73.714 71.918 73.799 70.9 74.92 70.388 75.832 70.166 76.662S70.042 78.204 70.166 78.811C70.29 79.417 70.419 79.939 70.386 80.465 70.355 80.99 70.176 81.569 69.55 82.367 68.864 83.24 68.168 83.514 67.375 83.553S65.696 83.348 64.781 83.033 62.928 82.336 62.016 82.195C61.103 82.055 60.154 82.201 59.424 82.935 58.398 83.969 58.179 85.703 58.09 87.75S58.077 92.2 57.893 94.492A0.49 0.49 0 0 0 58.324 94.998 0.49 0.49 0 0 0 58.83 94.566C59.02 92.202 58.94 89.794 59.027 87.801S59.424 84.249 60.09 83.578C60.588 83.076 61.115 83.017 61.867 83.133 62.62 83.249 63.518 83.6 64.461 83.923 65.404 84.249 66.41 84.54 67.424 84.49S69.463 83.99 70.289 82.936C71 82.029 71.282 81.233 71.326 80.516 71.37 79.798 71.193 79.199 71.078 78.639 70.964 78.078 70.906 77.556 71.078 76.91S71.658 75.466 72.61 74.416C72.77 74.239 72.9 74.03 72.932 73.799A0.92 0.92 0 0 0 72.783 73.182C72.568 72.849 72.246 72.666 71.943 72.488S71.333 72.147 71.13 71.996C71.054 71.94 71.004 71.916 71.055 71.896 71.178 71.851 71.284 71.904 71.475 71.922 71.777 71.95 72.132 71.986 72.486 71.922 72.841 71.858 73.25 71.655 73.45 71.254 73.648 70.854 73.623 70.438 73.55 70.044 73.475 69.653 73.339 69.249 73.229 68.884 73.117 68.517 73.019 68.178 73.006 67.896 72.993 67.615 73.056 67.413 73.203 67.23 73.374 67.014 73.561 66.966 73.943 66.982 74.326 67 74.841 67.132 75.377 67.23 75.913 67.325 76.477 67.399 77.055 67.229 77.632 67.057 78.173 66.6 78.488 65.846 78.788 65.126 78.658 64.304 78.34 63.45 78.023 62.598 77.486 61.685 76.883 60.71 75.676 58.757 74.128 56.576 73.129 54.512 72.674 53.572 72.838 52.607 73.178 51.475 73.518 50.342 74.03 49.1 74.066 47.72 74.251 40.676 71.497 34.807 66.881 30.68 62.27 26.558 55.829 24.153 48.61 23.89V19.83L58.887 5zM45.382 31.35V38H48.61V31.36C50.311 31.47 52.147 31.743 54.152 32.24 58.54 33.326 61.41 35.65 63.037 38.1 64.665 40.55 64.981 43.142 64.437 44.602 63.645 46.732 62.342 47.873 60.704 48.547S57.07 49.367 55.084 49.262C49.462 48.962 45.664 50.612 42.704 53.443 41.656 54.443 39.926 55.977 38.103 56.75S34.553 57.653 32.784 55.902C30.355 53.502 29.39 50.065 29.505 46.648S30.85 39.882 32.606 37.838C35.24 34.768 39.168 31.786 45.382 31.35" fill="#08ecd9" data-fill-palette-color="accent"></path></svg></g></svg></g><g></g></svg></g><defs></defs></svg><rect width="146.39395908246613" height="247.2" fill="none" stroke="none" visibility="hidden"></rect></g></svg></g></svg>